<svg height="56" viewBox="0 0 56 56" width="56" xmlns="http://www.w3.org/2000/svg"><path d="m27.9999 51.9063c13.0547 0 23.9064-10.8282 23.9064-23.9063 0-13.0547-10.8751-23.9063-23.9298-23.9063-13.0782 0-23.8828 10.8516-23.8828 23.9063 0 13.0781 10.8281 23.9063 23.9062 23.9063zm-11.4609-26.5079c0-4.9453 4.0546-9 9.0234-9 4.9453 0 9 4.0547 9 9 0 1.9453-.6094 3.7266-1.6641 5.1797l5.8594 5.8594c.3281.3281.5391.7734.5391 1.2188 0 .9843-.6797 1.664-1.5938 1.664-.539 0-.9843-.164-1.4297-.6094l-5.789-5.789c-1.4063.9375-3.1172 1.5-4.9219 1.5-4.9688 0-9.0234-4.0547-9.0234-9.0235zm2.6015 0c0 3.5157 2.9063 6.4219 6.4219 6.4219 3.4688 0 6.375-2.9062 6.375-6.4219 0-3.4687-2.9062-6.375-6.375-6.375-3.5156 0-6.4219 2.9063-6.4219 6.375z"/></svg>